<svg xmlns="http://www.w3.org/2000/svg" width="256" height="256" viewBox="0 0 256 256">
  <path d="M72 122 C72 76 98 50 128 50 C158 50 184 76 184 122 C184 164 158 190 128 190 C98 190 72 164 72 122Z" fill="#8AF0A4" stroke="#2B2B2B" stroke-width="8"/>
  <ellipse cx="105" cy="120" rx="15" ry="24" fill="#2B2B2B" transform="rotate(-18 105 120)"/>
  <ellipse cx="151" cy="120" rx="15" ry="24" fill="#2B2B2B" transform="rotate(18 151 120)"/>
  <path d="M110 160 C122 168 134 168 146 160" fill="none" stroke="#2B2B2B" stroke-width="7" stroke-linecap="round"/>
  <circle cx="128" cy="44" r="8" fill="#FFCF33" stroke="#2B2B2B" stroke-width="5"/>
  <path d="M128 44 V26 M94 36 C78 24 62 24 48 36 M162 36 C178 24 194 24 208 36" stroke="#2B2B2B" stroke-width="6" stroke-linecap="round"/>
  <path d="M82 206 H174" stroke="#57D68D" stroke-width="9" stroke-linecap="round"/>
</svg>
